<svg width="135" height="304" viewBox="0 0 135 304" fill="none" xmlns="http://www.w3.org/2000/svg">
<path d="M278.254 196.699L278.066 196.92C261.06 180.638 237.965 160.649 212.225 154.753C199.364 151.807 185.846 152.382 172.093 158.695C158.338 165.01 144.324 177.077 130.492 197.155L129.674 198.353C95.3308 248.975 97.7315 294.868 96.8935 328.687C96.4717 345.708 95.2308 359.75 87.9691 369.731C80.6923 379.733 67.4352 385.581 43.1894 386.417L43.189 386.122L43.1895 385.828C67.3865 384.993 80.4217 379.159 87.5368 369.379C94.6665 359.579 95.9178 345.74 96.3403 328.691C97.1776 294.902 94.7671 248.817 129.23 198.018L130.051 196.816C143.927 176.673 158.016 164.522 171.888 158.154C185.763 151.784 199.401 151.21 212.357 154.178C238.251 160.109 261.439 180.197 278.442 196.477L278.254 196.699ZM415.167 253.597L414.979 253.818C397.973 237.536 374.879 217.547 349.138 211.651C341.574 209.918 333.782 209.404 325.849 210.559C325.887 210.567 325.924 210.576 325.962 210.585C351.856 216.516 375.044 236.604 392.047 252.884L391.859 253.106L391.67 253.328C374.664 237.046 351.569 217.056 325.829 211.16C325.299 211.039 324.769 210.925 324.237 210.816C321.631 211.269 319.011 211.906 316.379 212.74C337.125 221.2 355.59 237.41 369.76 250.977L369.571 251.199L369.383 251.42C355.057 237.705 336.412 221.359 315.504 213.022C313.345 213.742 311.179 214.595 309.007 215.593C308.93 215.628 308.854 215.664 308.777 215.7C324.108 224.567 337.781 236.765 348.838 247.351L348.65 247.573L348.461 247.794C337.312 237.119 323.545 224.85 308.132 216.004C306.403 216.828 304.671 217.742 302.935 218.752C312.927 226.055 321.963 234.266 329.714 241.687L329.526 241.911L329.337 242.131C321.527 234.653 312.432 226.393 302.386 219.076C301.285 219.729 300.184 220.422 299.082 221.154C304.021 225.397 308.632 229.68 312.86 233.728L312.672 233.95L312.483 234.172C308.214 230.085 303.562 225.762 298.579 221.489C298.209 221.739 297.839 221.994 297.468 222.253C297.87 222.635 298.269 223.016 298.665 223.394L298.477 223.616L298.287 223.837C297.857 223.425 297.422 223.011 296.984 222.594C287.138 229.581 277.226 239.797 267.406 254.053L266.588 255.25C232.245 305.873 234.645 351.767 233.807 385.585C233.385 402.606 232.145 416.647 224.883 426.628C217.606 436.63 204.35 442.478 180.104 443.315L180.104 442.725C204.301 441.89 217.335 436.056 224.45 426.277C231.58 416.477 232.832 402.638 233.255 385.589C234.092 351.8 231.68 305.715 266.143 254.915L266.964 253.714C276.775 239.472 286.692 229.226 296.564 222.194C293.8 219.574 290.886 216.875 287.835 214.169C287.124 214.466 286.41 214.774 285.698 215.102C271.942 221.416 257.929 233.484 244.097 253.563L243.279 254.759C208.935 305.382 211.337 351.275 210.499 385.094C210.077 402.115 208.836 416.157 201.574 426.138C194.297 436.14 181.04 441.988 156.794 442.825L156.794 442.529L156.795 442.235C180.991 441.4 194.026 435.566 201.141 425.787C208.271 415.987 209.523 402.147 209.945 385.098C210.783 351.309 208.371 305.224 242.834 254.424L243.656 253.223C257.532 233.081 271.62 220.93 285.493 214.562C286.113 214.277 286.734 214.006 287.354 213.744C285.214 211.855 283.011 209.961 280.743 208.093C275.03 208.875 269.241 210.518 263.411 213.195C249.655 219.51 235.641 231.576 221.809 251.655L220.992 252.852C186.648 303.475 189.049 349.369 188.211 383.188C187.789 400.208 186.549 414.25 179.287 424.231C172.01 434.233 158.753 440.081 134.508 440.918L134.507 440.622L134.507 440.328C158.704 439.493 171.739 433.659 178.854 423.879C185.983 414.079 187.236 400.24 187.658 383.191C188.496 349.402 186.084 303.317 220.547 252.518L221.367 251.316C235.244 231.173 249.333 219.023 263.206 212.655C268.895 210.043 274.545 208.406 280.123 207.588C279.58 207.143 279.033 206.698 278.482 206.256C277.5 205.618 276.511 204.992 275.514 204.38C264.816 203.083 253.731 204.408 242.489 209.569C228.733 215.884 214.72 227.95 200.888 248.029L200.07 249.226C165.726 299.849 168.128 345.743 167.29 379.561C166.868 396.582 165.627 410.624 158.365 420.605C151.088 430.606 137.832 436.454 113.586 437.291L113.586 436.701C137.783 435.866 150.818 430.032 157.932 420.253C165.062 410.453 166.314 396.614 166.736 379.565C167.574 345.777 165.163 299.691 199.626 248.891L200.446 247.69C214.323 227.547 228.411 215.396 242.284 209.028C253.18 204.026 263.929 202.599 274.317 203.653C273.761 203.319 273.202 202.991 272.642 202.665C269.635 201.583 266.585 200.672 263.496 199.964C250.636 197.019 237.118 197.593 223.365 203.906C209.61 210.221 195.596 222.288 181.764 242.366L180.947 243.563C146.603 294.186 149.003 340.079 148.165 373.898C147.743 390.919 146.503 404.961 139.241 414.942C131.965 424.944 118.708 430.791 94.4618 431.628L94.4619 431.039C118.659 430.204 131.693 424.37 138.808 414.59C145.938 404.79 147.191 390.952 147.613 373.902C148.45 340.113 146.039 294.028 180.502 243.229L181.322 242.028C195.199 221.885 209.287 209.734 223.16 203.365C237.035 196.995 250.673 196.421 263.629 199.388C265.723 199.868 267.798 200.441 269.854 201.096C262.444 197.054 254.672 193.844 246.642 192.005C233.781 189.06 220.263 189.633 206.511 195.946C192.755 202.261 178.742 214.328 164.91 234.407L164.092 235.604C129.749 286.227 132.149 332.12 131.311 365.939C130.889 382.96 129.649 397.002 122.387 406.983C115.111 416.985 101.854 422.832 77.6076 423.669L77.6072 423.374L77.6077 423.08C101.805 422.245 114.839 416.411 121.954 406.631C129.084 396.831 130.336 382.992 130.759 365.943C131.596 332.154 129.185 286.069 163.648 235.27L164.468 234.068C178.344 213.926 192.433 201.775 206.306 195.406C220.181 189.036 233.819 188.462 246.775 191.429C255.86 193.51 264.611 197.334 272.879 202.124C273.058 202.188 273.236 202.253 273.414 202.319C261.056 193.043 247.185 185.046 232.447 181.67C219.586 178.725 206.068 179.299 192.316 185.612C178.56 191.927 164.546 203.994 150.714 224.072L149.897 225.269C115.553 275.892 117.953 321.785 117.115 355.604C116.693 372.625 115.453 386.667 108.192 396.648C100.915 406.65 87.658 412.497 63.412 413.334L63.4121 412.745C87.609 411.91 100.643 406.076 107.759 396.296C114.888 386.496 116.141 372.658 116.563 355.608C117.401 321.819 114.989 275.734 149.452 224.935L150.272 223.734C164.149 203.591 178.237 191.44 192.11 185.071C205.985 178.701 219.623 178.127 232.58 181.094C248.053 184.639 262.56 193.238 275.358 203.059C276.222 203.4 277.083 203.754 277.94 204.121C278.463 204.204 278.985 204.293 279.506 204.388C263.455 189.762 243.233 174.206 221.044 169.123C208.183 166.178 194.665 166.751 180.912 173.064C167.157 179.379 153.143 191.446 139.311 211.525L138.494 212.722C104.15 263.345 106.55 309.238 105.712 343.057C105.291 360.078 104.05 374.12 96.7887 384.101C89.512 394.102 76.255 399.95 52.0091 400.787L52.0086 400.492L52.0091 400.198C76.206 399.363 89.2406 393.529 96.3556 383.749C103.486 373.949 104.737 360.11 105.159 343.061C105.996 309.272 103.586 263.187 138.049 212.388L138.869 211.186C152.746 191.044 166.834 178.893 180.707 172.524C194.582 166.154 208.221 165.58 221.177 168.547C243.832 173.737 264.415 189.762 280.597 204.593C281.318 204.735 282.036 204.887 282.753 205.051C285.056 205.579 287.337 206.221 289.595 206.959C294.361 207.016 299.061 207.621 303.675 208.677C304.288 208.818 304.898 208.968 305.508 209.124C311.873 208.528 318.137 208.97 324.255 210.217C332.788 208.748 341.163 209.218 349.271 211.075C375.165 217.006 398.353 237.095 415.356 253.375L415.167 253.597ZM271.539 180.988L271.351 181.21C254.345 164.928 231.25 144.938 205.509 139.042C192.649 136.096 179.131 136.671 165.378 142.984C151.623 149.298 137.609 161.366 123.777 181.445L122.959 182.641C88.6157 233.264 91.0172 279.157 90.1792 312.976C89.7574 329.997 88.5166 344.039 81.2548 354.02C73.978 364.022 60.7211 369.87 36.4751 370.707L36.4747 370.411L36.4752 370.117C60.6719 369.282 73.7066 363.448 80.8217 353.669C87.9516 343.869 89.2035 330.029 89.626 312.98C90.4633 279.191 88.0516 233.106 122.515 182.306L123.336 181.105C137.213 160.963 151.301 148.812 165.173 142.444C179.049 136.074 192.687 135.499 205.643 138.467C231.537 144.398 254.724 164.486 271.727 180.766L271.539 180.988ZM266.339 164.382L266.15 164.602C249.145 148.32 226.05 128.331 200.309 122.435C187.448 119.49 173.93 120.064 160.177 126.377C146.422 132.692 132.409 144.759 118.577 164.837L117.759 166.035C83.4154 216.658 85.8161 262.551 84.978 296.369C84.5562 313.39 83.3154 327.432 76.0536 337.413C68.7768 347.415 55.5203 353.262 31.2748 354.099L31.2743 353.804L31.2749 353.51C55.4716 352.675 68.5064 346.841 75.6213 337.061C82.7512 327.261 84.0023 313.422 84.4248 296.373C85.2621 262.584 82.8516 216.499 117.315 165.7L118.135 164.499C132.012 144.356 146.1 132.205 159.973 125.836C173.848 119.467 187.486 118.892 200.442 121.86C226.336 127.791 249.523 147.879 266.526 164.159L266.339 164.382ZM262.08 147.248L261.891 147.47C244.885 131.187 221.791 111.198 196.05 105.302C183.189 102.357 169.672 102.931 155.919 109.244C142.164 115.559 128.15 127.626 114.318 147.704L113.5 148.901C79.1567 199.524 81.5582 245.418 80.7201 279.236C80.2983 296.257 79.057 310.299 71.7952 320.28C64.5185 330.282 51.2616 336.129 27.0156 336.966L27.0156 336.377C51.2125 335.542 64.247 329.708 71.3621 319.928C78.4921 310.128 79.7444 296.29 80.1669 279.241C81.0042 245.452 78.5925 199.366 113.055 148.567L113.877 147.365C127.753 127.222 141.841 115.072 155.714 108.703C169.589 102.334 183.227 101.759 196.183 104.726C222.077 110.658 245.265 130.747 262.268 147.026L262.08 147.248ZM258.094 130.087C241.088 113.805 217.993 93.8148 192.253 87.9189C179.392 84.9731 165.874 85.5479 152.121 91.8612C138.366 98.1759 124.353 110.243 110.521 130.322L109.702 131.518C75.3585 182.141 77.7599 228.035 76.9218 261.853C76.5 278.874 75.2592 292.916 67.9974 302.898C60.7207 312.899 47.464 318.747 23.2186 319.584L23.2181 319.288L23.2187 318.994C47.4153 318.159 60.4502 312.325 67.5651 302.546C74.695 292.746 75.9462 278.907 76.3687 261.857C77.206 228.069 74.7949 181.983 109.258 131.183L110.079 129.983C123.955 109.84 138.044 97.6891 151.917 91.3206C165.792 84.951 179.429 84.3767 192.385 87.3443C218.28 93.2754 241.467 113.364 258.47 129.643L258.094 130.087ZM254.562 112.442L254.373 112.665C237.368 96.3826 214.272 76.3927 188.532 70.4968C175.671 67.5512 162.153 68.1254 148.401 74.4386C134.646 80.7533 120.632 92.8208 106.8 112.9L105.982 114.096C71.6384 164.719 74.0392 210.613 73.2011 244.431C72.7793 261.452 71.5393 275.494 64.2776 285.475C57.0008 295.477 43.7439 301.325 19.4979 302.161L19.4974 301.866L19.4979 301.572C43.6948 300.737 56.7294 294.903 63.8444 285.124C70.9744 275.324 72.2263 261.484 72.6488 244.435C73.4861 210.646 71.0743 164.561 105.537 113.761L106.358 112.561C120.235 92.418 134.323 80.267 148.196 73.8985C162.071 67.5288 175.709 66.9541 188.666 69.9217C214.56 75.8528 237.747 95.9411 254.75 112.221L254.562 112.442ZM250.632 95.1306L250.442 95.3521C233.437 79.0701 210.343 59.0805 184.602 53.1845C171.742 50.2387 158.223 50.8135 144.471 57.1268C130.715 63.4415 116.701 75.5082 102.869 95.587L102.052 96.7839C67.7083 147.407 70.1091 193.3 69.2711 227.118C68.8493 244.139 67.6084 258.181 60.3467 268.162C53.0699 278.164 39.8129 284.012 15.567 284.849L15.5671 284.26C39.7638 283.425 52.7985 277.59 59.9135 267.811C67.0435 258.011 68.2958 244.172 68.7183 227.123C69.5557 193.334 67.144 147.249 101.607 96.4494L102.428 95.2477C116.304 75.1051 130.393 62.9544 144.265 56.5859C158.14 50.2161 171.778 49.6415 184.735 52.6091C210.629 58.5402 233.817 78.6293 250.82 94.9088L250.632 95.1306ZM246.091 78.2701C229.085 61.9879 205.99 41.998 180.25 36.1022C167.389 33.1564 153.871 33.7312 140.118 40.0444C126.363 46.3591 112.35 58.4263 98.5178 78.505L97.6991 79.7015C63.3555 130.324 65.7569 176.218 64.9189 210.037C64.4971 227.057 63.2562 241.1 55.9945 251.081C48.7177 261.083 35.4606 266.931 11.2148 267.767L11.2144 267.472L11.2149 267.178C35.4115 266.343 48.4463 260.509 55.5614 250.73C62.6913 240.93 63.9432 227.09 64.3657 210.041C65.203 176.252 62.7913 130.166 97.2542 79.367L98.0761 78.1662C111.952 58.0235 126.04 45.8729 139.913 39.5044C153.788 33.1346 167.426 32.5599 180.383 35.5276C206.277 41.4587 229.464 61.547 246.467 77.8264L246.091 78.2701ZM241.36 61.2841L241.171 61.5051C224.165 45.2229 201.071 25.2339 175.33 19.338C162.469 16.3922 148.951 16.967 135.198 23.2803C121.443 29.5949 107.43 41.6614 93.5978 61.74L92.7795 62.9373C58.436 113.56 60.8374 159.454 59.9994 193.272C59.5776 210.293 58.3367 224.336 51.075 234.317C43.7982 244.318 30.5414 250.166 6.29611 251.003L6.29567 250.707L6.2957 250.413C30.4925 249.578 43.5272 243.743 50.6422 233.964C57.7719 224.164 59.0237 210.325 59.4462 193.277C60.2835 159.488 57.8724 113.402 92.3355 62.6023L93.1561 61.4011C107.032 41.2583 121.122 29.1081 134.994 22.7396C148.869 16.3702 162.507 15.7951 175.463 18.7625C201.357 24.6936 224.545 44.7827 241.548 61.0622L241.36 61.2841ZM235.776 44.8972L235.587 45.1195C218.581 28.8374 195.486 8.84748 169.746 2.95159C156.885 0.00590564 143.367 0.580187 129.614 6.89334C115.859 13.208 101.846 25.2756 88.0135 45.3545L87.1956 46.5504C52.8519 97.1735 55.2526 143.067 54.4146 176.886C53.9928 193.907 52.7528 207.949 45.491 217.93C38.2142 227.932 24.9573 233.779 0.711335 234.616L0.710886 234.321L0.7114 234.027C24.9082 233.192 37.9428 227.358 45.0579 217.578C52.1879 207.778 53.4397 193.939 53.8622 176.89C54.6995 143.101 52.2877 97.0154 86.7508 46.2159L87.5713 45.0147C101.448 24.8719 115.537 12.7218 129.409 6.35326C143.285 -0.0164644 156.923 -0.591146 169.879 2.37648C195.773 8.30766 218.961 28.3959 235.964 44.6753L235.776 44.8972ZM282.636 207.273C282.386 207.04 282.138 206.806 281.886 206.573C280.525 205.914 279.153 205.286 277.771 204.692C277.641 204.671 277.511 204.653 277.381 204.634C277.859 205.011 278.335 205.389 278.809 205.769C279.646 206.313 280.477 206.866 281.303 207.426C281.748 207.369 282.192 207.319 282.636 207.273ZM280.334 205.143C280.276 205.131 280.218 205.119 280.16 205.108C280.252 205.15 280.344 205.193 280.435 205.235C280.402 205.204 280.367 205.174 280.334 205.143ZM291.863 212.031C289.35 210.503 286.791 209.06 284.19 207.724C284.122 207.729 284.054 207.732 283.985 207.738C285.101 208.786 286.193 209.824 287.261 210.846L287.073 211.069L286.885 211.29C285.689 210.146 284.463 208.983 283.209 207.809C282.821 207.845 282.432 207.886 282.043 207.93C284.443 209.578 286.793 211.288 289.089 213.039C290.015 212.678 290.939 212.342 291.863 212.031ZM288.454 213.29C286.874 212.09 285.268 210.91 283.638 209.757C285.104 210.999 286.542 212.246 287.951 213.493C288.118 213.424 288.287 213.358 288.454 213.29ZM287.648 206.964C285.984 206.462 284.308 206.013 282.621 205.627C282.226 205.537 281.83 205.45 281.435 205.366C281.691 205.602 281.947 205.836 282.2 206.072C282.907 206.414 283.611 206.766 284.312 207.125C285.427 207.041 286.539 206.986 287.648 206.964ZM298.128 221.106C295.192 218.6 292.144 216.111 288.993 213.7C288.807 213.773 288.62 213.845 288.435 213.92C291.446 216.598 294.321 219.264 297.047 221.851C297.408 221.599 297.768 221.351 298.128 221.106ZM297.214 210.494C294.675 209.392 292.102 208.403 289.497 207.548C288.109 207.533 286.715 207.564 285.317 207.646C287.784 208.941 290.213 210.327 292.598 211.791C294.141 211.293 295.679 210.86 297.214 210.494ZM301.883 218.709C298.842 216.511 295.715 214.402 292.512 212.429C291.552 212.743 290.59 213.083 289.627 213.451C292.733 215.836 295.737 218.295 298.63 220.769C299.715 220.044 300.799 219.358 301.883 218.709ZM307.518 215.657C304.444 213.916 301.305 212.313 298.11 210.887C296.493 211.25 294.872 211.683 293.246 212.193C296.385 214.144 299.45 216.222 302.43 218.384C304.129 217.386 305.824 216.477 307.518 215.657ZM303.542 209.253C299.577 208.345 295.551 207.772 291.474 207.598C293.735 208.397 295.973 209.291 298.182 210.272C300.056 209.858 301.923 209.539 303.782 209.31C303.702 209.291 303.622 209.272 303.542 209.253ZM314.669 212.696C311.642 211.523 308.568 210.52 305.453 209.719C303.339 209.92 301.214 210.237 299.08 210.678C302.165 212.084 305.195 213.653 308.164 215.348C308.377 215.248 308.589 215.149 308.802 215.052C310.762 214.152 312.719 213.371 314.669 212.696ZM322.675 210.513C317.605 209.591 312.44 209.235 307.205 209.577C310.018 210.366 312.796 211.315 315.536 212.401C317.926 211.612 320.306 210.987 322.675 210.513Z" fill="url(#paint0_radial_1_159)" fill-opacity="0.58"/>
<defs>
<radialGradient id="paint0_radial_1_159" cx="0" cy="0" r="1" gradientUnits="userSpaceOnUse" gradientTransform="translate(161.995 193.56) rotate(133.346) scale(202.361 204.517)">
<stop stop-color="white"/>
<stop offset="1" stop-color="#1E1E1E" stop-opacity="0"/>
<stop offset="1" stop-color="#0E0E35" stop-opacity="0"/>
<stop offset="1" stop-color="white" stop-opacity="0"/>
</radialGradient>
</defs>
</svg>
